<?xml version="1.0" encoding="utf-8"?>
<!-- Generator: Adobe Illustrator 22.1.0, SVG Export Plug-In . SVG Version: 6.00 Build 0)  -->
<svg version="1.1" id="Layer_1" xmlns="http://www.w3.org/2000/svg" xmlns:xlink="http://www.w3.org/1999/xlink" x="0px" y="0px"
	 viewBox="0 0 512 512" style="enable-background:new 0 0 512 512;" xml:space="preserve">
<g>
	<path d="M438.8,59.1H73.2C49.9,59.1,31,78,31,101.3v309.4c0,23.3,18.9,42.2,42.2,42.2h365.6c23.3,0,42.2-18.9,42.2-42.2V101.3
		C481,78,462.1,59.1,438.8,59.1z M433.5,410.7H78.5c-2.9,0-5.3-2.4-5.3-5.3V106.6c0-2.9,2.4-5.3,5.3-5.3h355.1
		c2.9,0,5.3,2.4,5.3,5.3v298.8C438.8,408.3,436.5,410.7,433.5,410.7z M396.6,329.8v21.1c0,5.8-4.7,10.5-10.5,10.5H210.3
		c-5.8,0-10.5-4.7-10.5-10.5v-21.1c0-5.8,4.7-10.5,10.5-10.5h175.8C391.9,319.3,396.6,324,396.6,329.8z M396.6,245.5v21.1
		c0,5.8-4.7,10.5-10.5,10.5H210.3c-5.8,0-10.5-4.7-10.5-10.5v-21.1c0-5.8,4.7-10.5,10.5-10.5h175.8
		C391.9,234.9,396.6,239.6,396.6,245.5z M396.6,161.1v21.1c0,5.8-4.7,10.5-10.5,10.5H210.3c-5.8,0-10.5-4.7-10.5-10.5v-21.1
		c0-5.8,4.7-10.5,10.5-10.5h175.8C391.9,150.5,396.6,155.3,396.6,161.1z M175.1,171.6c0,17.5-14.2,31.6-31.6,31.6
		s-31.6-14.2-31.6-31.6S126,140,143.5,140S175.1,154.2,175.1,171.6z M175.1,256c0,17.5-14.2,31.6-31.6,31.6s-31.6-14.2-31.6-31.6
		s14.2-31.6,31.6-31.6S175.1,238.5,175.1,256z M175.1,340.4c0,17.5-14.2,31.6-31.6,31.6s-31.6-14.2-31.6-31.6s14.2-31.6,31.6-31.6
		S175.1,322.9,175.1,340.4z"/>
</g>
</svg>
